#Comment line ignore any data following # character 
#Hierarchical Translation and Rotation (.htr) file 
[Header]	
#Header keywords are followed by a single value 
FileType HTR		#Single word string
DataType HTRS		#Translation followed by rotation and scale data
FileVersion 1		#integer
NumSegments 84		#integer
NumFrames 2		#integer
DataFrameRate 30		#integer, data frame rate in this file
EulerRotationOrder ZYX
CalibrationUnits mm
RotationUnits Degrees
GlobalAxisofGravity Y
BoneLengthAxis Y
ScaleFactor 1.00
[SegmentNames&Hierarchy]
#CHILD	PARENT
MASTER GLOBAL
root MASTER
chest root
L_mid_tent01 root
R_mid_tent01 root
spine01 root
Bip01_Neck chest
L_humerus chest
R_humerus chest
weapon_bone chest
Bip01_Head Bip01_Neck
eye_left_bone Bip01_Head
eye_right_bone Bip01_Head
L_forearm L_humerus
L_front_hand L_forearm
L_weapon_bone L_forearm
L_front_hand01_01 L_front_hand
L_front_hand02_01 L_front_hand
L_front_hand03_01 L_front_hand
L_front_hand01_02 L_front_hand01_01
L_front_hand02_02 L_front_hand02_01
L_front_hand03_02 L_front_hand03_01
R_forearm R_humerus
R_front_hand R_forearm
R_weapon_bone R_forearm
R_front_hand01_01 R_front_hand
R_front_hand02_01 R_front_hand
R_front_hand03_01 R_front_hand
R_front_hand01_02 R_front_hand01_01
R_front_hand02_02 R_front_hand02_01
R_front_hand03_02 R_front_hand03_01
null_rope01_connect L_mid_tent01
Rope1_Seg01 null_rope01_connect
Rope1_Seg02 Rope1_Seg01
Rope1_Seg03 Rope1_Seg02
Rope1_Seg04 Rope1_Seg03
Rope1_Seg05 Rope1_Seg04
Rope1_Seg06 Rope1_Seg05
Rope1_Seg07 Rope1_Seg06
Rope1_Seg09 Rope1_Seg07
L_mid_hand01 Rope1_Seg09
L_mid_hand02 Rope1_Seg09
L_mid_hand03 Rope1_Seg09
null_rope02_connect R_mid_tent01
Rope2_Seg01 null_rope02_connect
Rope2_Seg02 Rope2_Seg01
Rope2_Seg03 Rope2_Seg02
Rope2_Seg04 Rope2_Seg03
Rope2_Seg05 Rope2_Seg04
Rope2_Seg06 Rope2_Seg05
Rope2_Seg07 Rope2_Seg06
Rope2_Seg09 Rope2_Seg07
R_mid_hand01 Rope2_Seg09
R_mid_hand02 Rope2_Seg09
R_mid_hand03 Rope2_Seg09
spine02 spine01
spine03 spine02
pelvis spine03
null_rope03_connect pelvis
null_rope04_connect pelvis
Rope3_Seg01 null_rope03_connect
Rope3_Seg02 Rope3_Seg01
Rope3_Seg03 Rope3_Seg02
Rope3_Seg04 Rope3_Seg03
Rope3_Seg05 Rope3_Seg04
Rope3_Seg06 Rope3_Seg05
Rope3_Seg07 Rope3_Seg06
Rope3_Seg08 Rope3_Seg07
Rope3_Seg09 Rope3_Seg08
R_rear_hand01 Rope3_Seg09
R_rear_hand02 Rope3_Seg09
R_rear_hand03 Rope3_Seg09
Rope4_Seg01 null_rope04_connect
Rope4_Seg02 Rope4_Seg01
Rope4_Seg03 Rope4_Seg02
Rope4_Seg04 Rope4_Seg03
Rope4_Seg05 Rope4_Seg04
Rope4_Seg06 Rope4_Seg05
Rope4_Seg07 Rope4_Seg06
Rope4_Seg08 Rope4_Seg07
Rope4_Seg09 Rope4_Seg08
L_rear_hand01 Rope4_Seg09
L_rear_hand02 Rope4_Seg09
L_rear_hand03 Rope4_Seg09
[BasePosition]
#SegmentName Tx, Ty, Tz, Rx, Ry, Rz, BoneLength
MASTER 0.000000 0.000000 0.000000 -90.000000 0.000000 0.000000 10.000000 
root 0.000000 0.000000 0.000000 0.000000 0.000000 0.000000 10.000000 
chest 0.000000 0.000000 0.000000 0.000000 0.000000 0.000000 10.000000 
L_mid_tent01 0.000000 0.000000 0.000000 0.000000 0.000000 0.000000 10.000000 
R_mid_tent01 0.000000 0.000000 0.000000 0.000000 0.000000 0.000000 10.000000 
spine01 0.000000 0.000000 0.000000 0.000000 0.000000 0.000000 10.000000 
Bip01_Neck 0.000000 0.000000 0.000000 0.000000 0.000000 0.000000 10.000000 
L_humerus 0.000000 0.000000 0.000000 0.000000 0.000000 0.000000 10.000000 
R_humerus 0.000000 0.000000 0.000000 0.000000 0.000000 0.000000 10.000000 
weapon_bone 0.000000 0.000000 0.000000 0.000000 0.000000 0.000000 10.000000 
Bip01_Head 0.000000 0.000000 0.000000 0.000000 0.000000 0.000000 10.000000 
eye_left_bone 0.000000 0.000000 0.000000 0.000000 0.000000 0.000000 10.000000 
eye_right_bone 0.000000 0.000000 0.000000 0.000000 0.000000 0.000000 10.000000 
L_forearm 0.000000 0.000000 0.000000 0.000000 0.000000 0.000000 10.000000 
L_front_hand 0.000000 0.000000 0.000000 0.000000 0.000000 0.000000 10.000000 
L_weapon_bone 0.000000 0.000000 0.000000 0.000000 0.000000 0.000000 10.000000 
L_front_hand01_01 0.000000 0.000000 0.000000 0.000000 0.000000 0.000000 10.000000 
L_front_hand02_01 0.000000 0.000000 0.000000 0.000000 0.000000 0.000000 10.000000 
L_front_hand03_01 0.000000 0.000000 0.000000 0.000000 0.000000 0.000000 10.000000 
L_front_hand01_02 0.000000 0.000000 0.000000 0.000000 0.000000 0.000000 10.000000 
L_front_hand02_02 0.000000 0.000000 0.000000 0.000000 0.000000 0.000000 10.000000 
L_front_hand03_02 0.000000 0.000000 0.000000 0.000000 0.000000 0.000000 10.000000 
R_forearm 0.000000 0.000000 0.000000 0.000000 0.000000 0.000000 10.000000 
R_front_hand 0.000000 0.000000 0.000000 0.000000 0.000000 0.000000 10.000000 
R_weapon_bone 0.000000 0.000000 0.000000 0.000000 0.000000 0.000000 10.000000 
R_front_hand01_01 0.000000 0.000000 0.000000 0.000000 0.000000 0.000000 10.000000 
R_front_hand02_01 0.000000 0.000000 0.000000 0.000000 0.000000 0.000000 10.000000 
R_front_hand03_01 0.000000 0.000000 0.000000 0.000000 0.000000 0.000000 10.000000 
R_front_hand01_02 0.000000 0.000000 0.000000 0.000000 0.000000 0.000000 10.000000 
R_front_hand02_02 0.000000 0.000000 0.000000 0.000000 0.000000 0.000000 10.000000 
R_front_hand03_02 0.000000 0.000000 0.000000 0.000000 0.000000 0.000000 10.000000 
null_rope01_connect 0.000000 0.000000 0.000000 0.000000 0.000000 0.000000 10.000000 
Rope1_Seg01 0.000000 0.000000 0.000000 0.000000 0.000000 0.000000 10.000000 
Rope1_Seg02 0.000000 0.000000 0.000000 0.000000 0.000000 0.000000 10.000000 
Rope1_Seg03 0.000000 0.000000 0.000000 0.000000 0.000000 0.000000 10.000000 
Rope1_Seg04 0.000000 0.000000 0.000000 0.000000 0.000000 0.000000 10.000000 
Rope1_Seg05 0.000000 0.000000 0.000000 0.000000 0.000000 0.000000 10.000000 
Rope1_Seg06 0.000000 0.000000 0.000000 0.000000 0.000000 0.000000 10.000000 
Rope1_Seg07 0.000000 0.000000 0.000000 0.000000 0.000000 0.000000 10.000000 
Rope1_Seg09 0.000000 0.000000 0.000000 0.000000 0.000000 0.000000 10.000000 
L_mid_hand01 0.000000 0.000000 0.000000 0.000000 0.000000 0.000000 10.000000 
L_mid_hand02 0.000000 0.000000 0.000000 0.000000 0.000000 0.000000 10.000000 
L_mid_hand03 0.000000 0.000000 0.000000 0.000000 0.000000 0.000000 10.000000 
null_rope02_connect 0.000000 0.000000 0.000000 0.000000 0.000000 0.000000 10.000000 
Rope2_Seg01 0.000000 0.000000 0.000000 0.000000 0.000000 0.000000 10.000000 
Rope2_Seg02 0.000000 0.000000 0.000000 0.000000 0.000000 0.000000 10.000000 
Rope2_Seg03 0.000000 0.000000 0.000000 0.000000 0.000000 0.000000 10.000000 
Rope2_Seg04 0.000000 0.000000 0.000000 0.000000 0.000000 0.000000 10.000000 
Rope2_Seg05 0.000000 0.000000 0.000000 0.000000 0.000000 0.000000 10.000000 
Rope2_Seg06 0.000000 0.000000 0.000000 0.000000 0.000000 0.000000 10.000000 
Rope2_Seg07 0.000000 0.000000 0.000000 0.000000 0.000000 0.000000 10.000000 
Rope2_Seg09 0.000000 0.000000 0.000000 0.000000 0.000000 0.000000 10.000000 
R_mid_hand01 0.000000 0.000000 0.000000 0.000000 0.000000 0.000000 10.000000 
R_mid_hand02 0.000000 0.000000 0.000000 0.000000 0.000000 0.000000 10.000000 
R_mid_hand03 0.000000 0.000000 0.000000 0.000000 0.000000 0.000000 10.000000 
spine02 0.000000 0.000000 0.000000 0.000000 0.000000 0.000000 10.000000 
spine03 0.000000 0.000000 0.000000 0.000000 0.000000 0.000000 10.000000 
pelvis 0.000000 0.000000 0.000000 0.000000 0.000000 0.000000 10.000000 
null_rope03_connect 0.000000 0.000000 0.000000 0.000000 0.000000 0.000000 10.000000 
null_rope04_connect 0.000000 0.000000 0.000000 0.000000 0.000000 0.000000 10.000000 
Rope3_Seg01 0.000000 0.000000 0.000000 0.000000 0.000000 0.000000 10.000000 
Rope3_Seg02 0.000000 0.000000 0.000000 0.000000 0.000000 0.000000 10.000000 
Rope3_Seg03 0.000000 0.000000 0.000000 0.000000 0.000000 0.000000 10.000000 
Rope3_Seg04 0.000000 0.000000 0.000000 0.000000 0.000000 0.000000 10.000000 
Rope3_Seg05 0.000000 0.000000 0.000000 0.000000 0.000000 0.000000 10.000000 
Rope3_Seg06 0.000000 0.000000 0.000000 0.000000 0.000000 0.000000 10.000000 
Rope3_Seg07 0.000000 0.000000 0.000000 0.000000 0.000000 0.000000 10.000000 
Rope3_Seg08 0.000000 0.000000 0.000000 0.000000 0.000000 0.000000 10.000000 
Rope3_Seg09 0.000000 0.000000 0.000000 0.000000 0.000000 0.000000 10.000000 
R_rear_hand01 0.000000 0.000000 0.000000 0.000000 0.000000 0.000000 10.000000 
R_rear_hand02 0.000000 0.000000 0.000000 0.000000 0.000000 0.000000 10.000000 
R_rear_hand03 0.000000 0.000000 0.000000 0.000000 0.000000 0.000000 10.000000 
Rope4_Seg01 0.000000 0.000000 0.000000 0.000000 0.000000 0.000000 10.000000 
Rope4_Seg02 0.000000 0.000000 0.000000 0.000000 0.000000 0.000000 10.000000 
Rope4_Seg03 0.000000 0.000000 0.000000 0.000000 0.000000 0.000000 10.000000 
Rope4_Seg04 0.000000 0.000000 0.000000 0.000000 0.000000 0.000000 10.000000 
Rope4_Seg05 0.000000 0.000000 0.000000 0.000000 0.000000 0.000000 10.000000 
Rope4_Seg06 0.000000 0.000000 0.000000 0.000000 0.000000 0.000000 10.000000 
Rope4_Seg07 0.000000 0.000000 0.000000 0.000000 0.000000 0.000000 10.000000 
Rope4_Seg08 0.000000 0.000000 0.000000 0.000000 0.000000 0.000000 10.000000 
Rope4_Seg09 0.000000 0.000000 0.000000 0.000000 0.000000 0.000000 10.000000 
L_rear_hand01 0.000000 0.000000 0.000000 0.000000 0.000000 0.000000 10.000000 
L_rear_hand02 0.000000 0.000000 0.000000 0.000000 0.000000 0.000000 10.000000 
L_rear_hand03 0.000000 0.000000 0.000000 0.000000 0.000000 0.000000 10.000000 
#Beginning of Data. Separated by tabs
#Fr	Tx	Ty	Tz	Rx	Ry	Rz	SF
[MASTER]
10 1142.025269 -1635.517822 0.000000 0.000124 -0.002344 -96.067146 1994.778198
11 1199.057373 -1842.314209 0.000000 0.000149 -0.002342 -97.278633 2198.149414
[root]
10 -62.822105 7.775483 1029.833496 -74.050858 -9.332044 -179.896545 1031.777100
11 -62.822052 -0.955686 1013.546448 -73.972000 -9.156442 -179.892426 1015.491943
[chest]
10 -84.512650 -34.090519 0.000000 -9.132590 4.794935 155.467102 91.129311
11 -84.512650 -34.090519 0.000000 -9.553719 5.051015 155.402985 91.129311
[L_mid_tent01]
10 23.228750 24.509907 -223.761200 -18.945330 31.585476 -27.418812 226.294907
11 23.228750 24.509907 -223.761200 -19.170620 34.692142 -26.788231 226.294907
[R_mid_tent01]
10 23.228794 24.509907 226.238495 -159.708435 4.831217 -18.627380 228.744751
11 23.228794 24.509907 226.238495 -159.315765 12.413507 -15.798579 228.744751
[spine01]
10 -0.361383 -0.195265 0.000000 0.001815 0.001488 11.320962 0.410763
11 -0.361383 -0.195265 0.000000 0.001815 0.001488 11.320962 0.410763
[Bip01_Neck]
10 165.484543 71.581718 0.000119 175.896118 1.177290 24.871183 180.302734
11 165.484543 71.581718 0.000119 175.896118 1.177290 24.871181 180.302734
[L_humerus]
10 -13.983130 -135.272980 -120.471481 166.456207 13.248395 -108.068832 181.680161
11 -13.983130 -135.272980 -120.471481 166.194733 14.304115 -108.043236 181.680161
[R_humerus]
10 -13.983309 -135.273102 125.287651 -167.117172 -3.327837 -103.744225 184.909012
11 -13.983309 -135.273102 125.287651 -167.004471 -4.437150 -103.669388 184.909012
[weapon_bone]
10 235.964890 -300.705902 0.000000 0.000000 -89.951546 -128.212341 382.234833
11 235.964890 -300.705902 0.000000 0.000000 -89.951546 -128.212341 382.234833
[Bip01_Head]
10 201.313782 211.516800 15.929725 -19.064611 6.701774 -73.717857 292.438629
11 201.313782 211.516800 15.929725 -19.192495 6.351624 -73.437241 292.438629
[eye_left_bone]
10 -24.626970 125.451866 -64.772606 0.000000 -90.000000 -99.840431 143.318359
11 -24.626970 125.451866 -64.772606 0.000000 -90.000000 -99.840431 143.318359
[eye_right_bone]
10 -24.626970 125.451866 64.327362 0.000000 -89.965736 80.156380 143.117676
11 -24.626970 125.451866 64.327362 0.000000 -89.980217 80.156380 143.117676
[L_forearm]
10 322.776093 0.000000 -0.000119 0.000357 -0.002320 -107.506004 322.776093
11 322.776093 0.000000 -0.000119 0.000357 -0.002320 -107.505997 322.776093
[L_front_hand]
10 241.149185 -0.042021 -3.300071 -179.431961 -2.195943 -5.942918 241.171753
11 241.149185 -0.042021 -3.300071 -179.431961 -2.195943 -5.942918 241.171753
[L_weapon_bone]
10 156.183838 0.000000 0.000000 0.000014 0.000007 0.000001 156.183838
11 156.183838 0.000000 0.000000 0.000014 0.000007 0.000001 156.183838
[L_front_hand01_01]
10 86.095154 20.947098 -0.655860 0.139491 -0.584553 24.181786 88.609184
11 86.095154 20.947098 -0.655860 0.139491 -0.584553 24.181786 88.609184
[L_front_hand02_01]
10 86.935165 -11.437475 24.513514 119.190460 -21.905655 -12.119137 91.046425
11 86.935165 -11.437475 24.513514 119.190460 -21.905661 -12.119138 91.046425
[L_front_hand03_01]
10 86.637497 -14.123976 -20.424902 -120.437630 20.554031 -14.327168 90.126129
11 86.637497 -14.123976 -20.424902 -120.437630 20.554031 -14.327168 90.126129
[L_front_hand01_02]
10 71.020905 -0.000179 0.000030 0.000334 -0.002323 -106.379684 71.020905
11 71.020905 -0.000179 0.000030 0.000334 -0.002323 -106.379684 71.020905
[L_front_hand02_02]
10 71.020927 -0.000119 0.000060 0.000334 -0.002323 -106.379684 71.020927
11 71.020927 -0.000119 0.000060 0.000334 -0.002323 -106.379684 71.020927
[L_front_hand03_02]
10 71.020905 -0.000060 0.000060 0.000334 -0.002323 -106.379684 71.020905
11 71.020905 -0.000060 0.000060 0.000334 -0.002323 -106.379684 71.020905
[R_forearm]
10 322.776428 -0.000060 0.000030 0.196737 0.083011 -114.368637 322.776428
11 322.776428 -0.000060 0.000030 0.196737 0.083011 -114.368637 322.776428
[R_front_hand]
10 238.847015 -0.006795 2.210259 -0.341870 1.692705 -0.151779 238.857239
11 238.847015 -0.006795 2.210259 -0.341870 1.692706 -0.151780 238.857239
[R_weapon_bone]
10 155.664093 0.002503 -0.000030 0.003487 0.001180 -90.988930 155.664078
11 155.664093 0.002503 -0.000030 0.003487 0.001180 -90.988930 155.664078
[R_front_hand01_01]
10 87.624611 14.231146 22.918642 -119.218056 -22.033409 12.303375 91.683487
11 87.624611 14.231146 22.918642 -119.218056 -22.033409 12.303375 91.683487
[R_front_hand02_01]
10 89.356956 14.367283 -19.491137 120.545532 20.947184 14.823009 92.579636
11 89.356956 14.367283 -19.491137 120.545532 20.947182 14.823009 92.579636
[R_front_hand03_01]
10 87.286232 -22.307278 -0.143439 -0.231628 -0.392922 -24.567768 90.091743
11 87.286232 -22.307278 -0.143439 -0.231628 -0.392922 -24.567772 90.091743
[R_front_hand01_02]
10 71.020905 0.000060 0.000119 0.002323 -0.000334 106.381714 71.020905
11 71.020905 0.000060 0.000119 0.002323 -0.000334 106.381714 71.020905
[R_front_hand02_02]
10 71.020844 -0.000030 -0.000119 0.002323 -0.000334 106.381714 71.020836
11 71.020844 -0.000030 -0.000119 0.002323 -0.000334 106.381714 71.020836
[R_front_hand03_02]
10 71.020905 0.000000 0.000030 0.002323 -0.000334 106.381714 71.020905
11 71.020905 0.000000 0.000030 0.002323 -0.000334 106.381714 71.020905
[null_rope01_connect]
10 328.732483 0.000000 -0.000238 67.931602 46.826355 4.936208 328.732483
11 328.732483 0.000000 -0.000238 68.935623 42.876579 4.265893 328.732483
[Rope1_Seg01]
10 0.000059 0.000000 -0.000053 46.157242 -22.632313 61.621243 0.000080
11 0.000064 0.000000 -0.000051 52.327591 -23.553526 56.598625 0.000081
[Rope1_Seg02]
10 139.999863 -0.000179 0.000000 -3.201936 3.211459 1.525489 139.999863
11 139.999863 -0.000179 0.000000 -2.338057 2.400861 1.199530 139.999863
[Rope1_Seg03]
10 139.999924 0.000060 -0.000060 -5.171722 4.827039 2.647886 139.999924
11 139.999924 0.000060 -0.000060 -3.611027 3.517968 1.950237 139.999924
[Rope1_Seg04]
10 139.999924 -0.000060 -0.000119 -9.394410 8.002356 5.633879 139.999924
11 139.999924 -0.000060 -0.000119 -6.348900 5.790491 3.718191 139.999924
[Rope1_Seg05]
10 139.999832 0.000119 -0.000060 -18.739849 16.529230 22.509830 139.999832
11 139.999832 0.000119 -0.000060 -9.463062 6.843744 9.055570 139.999832
[Rope1_Seg06]
10 139.999954 0.000119 -0.000060 -12.979632 17.588392 18.556934 139.999954
11 139.999954 0.000119 -0.000060 -20.430975 30.554565 35.161556 139.999954
[Rope1_Seg07]
10 139.999985 0.000060 0.000000 -3.014991 5.450244 1.651176 139.999985
11 139.999985 0.000060 0.000000 -5.122324 7.324076 13.058346 139.999985
[Rope1_Seg09]
10 121.602913 0.000119 -0.000089 -89.793175 -1.359789 0.847147 121.602913
11 121.602913 0.000119 -0.000089 -89.793175 -1.359789 0.847147 121.602913
[L_mid_hand01]
10 103.859421 1.038730 8.195221 106.855484 -31.239275 -9.461397 104.187431
11 103.859421 1.038730 8.195221 106.855484 -31.239275 -9.461397 104.187431
[L_mid_hand02]
10 105.572853 -4.139662 -10.864139 -142.331345 25.752670 -28.774628 106.211075
11 105.572853 -4.139662 -10.864139 -142.331345 25.752670 -28.774628 106.211075
[L_mid_hand03]
10 104.641464 17.579376 -3.913581 -16.122810 9.734291 34.223598 106.179977
11 104.641464 17.579376 -3.913581 -16.122810 9.734291 34.223598 106.179977
[null_rope02_connect]
10 328.732849 0.000179 -0.000119 175.268509 -54.174084 63.679810 328.732849
11 328.732849 0.000179 -0.000119 -171.841293 -49.790737 52.865879 328.732849
[Rope2_Seg01]
10 -0.000119 -0.000107 -0.000107 32.138332 -40.830952 130.193573 0.000192
11 -0.000121 -0.000102 -0.000102 31.554224 -59.407314 129.844772 0.000188
[Rope2_Seg02]
10 139.999741 -0.000060 -0.000119 -0.205688 9.219428 -4.417069 139.999756
11 139.999741 -0.000060 -0.000119 -0.772418 16.248192 -8.950166 139.999756
[Rope2_Seg03]
10 140.000107 0.000030 0.000000 0.870559 7.491432 -4.606618 140.000107
11 140.000107 0.000030 0.000000 2.143821 14.864582 -11.206297 140.000107
[Rope2_Seg04]
10 139.999802 0.000000 -0.000060 4.092522 6.019300 -6.065052 139.999802
11 139.999802 0.000000 -0.000060 8.417844 10.555752 -10.887826 139.999802
[Rope2_Seg05]
10 139.999985 -0.000060 0.000119 -5.344034 3.781987 1.836423 139.999985
11 139.999985 -0.000060 0.000119 -15.618372 6.371581 5.574796 139.999985
[Rope2_Seg06]
10 139.999893 -0.000030 -0.000119 -13.219980 2.044500 8.437449 139.999893
11 139.999893 -0.000030 -0.000119 -20.464321 1.087754 13.022414 139.999893
[Rope2_Seg07]
10 139.999893 0.000060 -0.000060 -8.115269 0.418360 6.078354 139.999893
11 139.999893 0.000060 -0.000060 -7.168886 -0.693059 5.775996 139.999893
[Rope2_Seg09]
10 121.338966 0.000089 -0.000060 33.793236 -1.359788 -0.847141 121.338966
11 121.338966 0.000089 -0.000060 33.793236 -1.359788 -0.847141 121.338966
[R_mid_hand01]
10 104.680779 11.144459 -10.335981 -41.523792 25.424656 28.595957 105.778534
11 104.680779 11.144459 -10.335981 -41.523792 25.424656 28.595957 105.778534
[R_mid_hand02]
10 104.070427 2.443552 8.231699 72.847389 -32.746803 10.013901 104.424065
11 104.070427 2.443552 8.231699 72.847389 -32.746803 10.013901 104.424065
[R_mid_hand03]
10 106.028137 -11.221827 -5.996406 -167.901306 10.259192 -37.009720 106.788818
11 106.028137 -11.221827 -5.996406 -167.901306 10.259192 -37.009720 106.788818
[spine02]
10 129.756927 0.001550 0.000119 0.001147 -1.797837 -7.854275 129.756927
11 129.756927 0.001550 0.000119 0.001147 -1.797837 -7.854275 129.756927
[spine03]
10 79.115631 0.000000 -0.000119 1.459971 -2.848092 23.765959 79.115631
11 79.115631 0.000000 -0.000119 1.459971 -2.848092 23.765965 79.115631
[pelvis]
10 169.435242 0.051022 0.000000 -0.000005 0.000003 -4.322055 169.435257
11 169.435242 0.051022 0.000000 -0.000005 0.000003 -4.322055 169.435257
[null_rope03_connect]
10 -1.257226 -2.466202 137.391083 -3.331685 72.199913 -105.525261 137.418976
11 -1.257226 -2.466202 137.391083 0.561675 72.127289 -101.609070 137.418976
[null_rope04_connect]
10 -1.259640 -2.480268 -137.844437 -3.331685 72.199913 -105.525261 137.872513
11 -1.259640 -2.480268 -137.844437 0.561675 72.127289 -101.609070 137.872513
[Rope3_Seg01]
10 0.000059 0.000000 -0.000053 -130.849396 -3.087096 107.576164 0.000080
11 0.000064 0.000000 -0.000051 -129.342087 -9.975045 93.820023 0.000081
[Rope3_Seg02]
10 139.999924 -0.000119 0.000060 0.125242 1.715211 2.966664 139.999924
11 139.999924 -0.000119 0.000060 -0.224749 -2.077243 1.845913 139.999924
[Rope3_Seg03]
10 139.999924 -0.000119 0.000119 0.129560 2.135266 3.675038 139.999924
11 139.999924 -0.000119 0.000119 -0.322839 -2.480505 2.190351 139.999924
[Rope3_Seg04]
10 139.999924 0.000119 0.000000 0.020378 2.203725 4.831367 139.999924
11 139.999924 0.000119 0.000000 -0.629557 -4.353617 2.540055 139.999924
[Rope3_Seg05]
10 139.999924 -0.000238 0.000060 -0.502317 0.480439 7.453153 139.999924
11 139.999924 -0.000238 0.000060 -0.802005 -9.622647 2.764491 139.999924
[Rope3_Seg06]
10 139.999893 -0.000119 -0.000060 2.051178 8.183978 5.948109 139.999893
11 139.999893 -0.000119 -0.000060 0.609632 3.601274 4.529800 139.999893
[Rope3_Seg07]
10 139.999771 0.000060 -0.000119 6.711280 14.424803 1.501106 139.999771
11 139.999771 0.000060 -0.000119 5.431891 19.257824 6.233891 139.999771
[Rope3_Seg08]
10 139.999985 -0.000060 0.000000 5.167238 8.421164 0.759612 139.999985
11 139.999985 -0.000060 0.000000 4.971319 11.106624 3.345465 139.999985
[Rope3_Seg09]
10 90.185997 -0.000179 -0.000060 89.793228 -1.359877 -0.847183 90.185997
11 90.185997 -0.000179 -0.000060 89.793228 -1.359877 -0.847183 90.185997
[R_rear_hand01]
10 103.366196 -6.073594 -10.757982 -161.551193 16.666374 -30.088671 104.101845
11 103.366196 -6.073594 -10.757982 -161.551193 16.666374 -30.088671 104.101845
[R_rear_hand02]
10 100.509819 12.039542 -7.992327 -34.280552 19.289745 28.875523 101.543350
11 100.509819 12.039542 -7.992327 -34.280552 19.289745 28.875523 101.543350
[R_rear_hand03]
10 101.539970 5.215704 5.435467 83.366440 -30.933914 7.284830 101.819031
11 101.539970 5.215704 5.435467 83.366440 -30.933914 7.284830 101.819031
[Rope4_Seg01]
10 0.000016 -0.000130 -0.000153 32.945248 -39.645962 104.620522 0.000201
11 0.000016 -0.000153 -0.000153 57.782665 -49.572021 70.099289 0.000216
[Rope4_Seg02]
10 139.999985 0.000060 0.000119 1.627205 8.150717 -19.651529 139.999985
11 139.999985 0.000060 0.000119 -5.551977 16.535170 -12.096530 139.999985
[Rope4_Seg03]
10 139.999924 0.000000 -0.000238 1.028110 6.797418 -15.112926 139.999924
11 139.999924 0.000000 -0.000238 -1.944075 17.130806 -10.258039 139.999924
[Rope4_Seg04]
10 139.999985 0.000000 0.000119 0.897626 7.372014 -10.631425 139.999985
11 139.999985 0.000000 0.000119 1.753557 18.985142 -7.182611 139.999985
[Rope4_Seg05]
10 139.999802 -0.000060 -0.000119 0.468952 -1.371485 -4.303105 139.999802
11 139.999802 -0.000060 -0.000119 1.737170 4.013146 -4.031401 139.999802
[Rope4_Seg06]
10 139.999924 0.000000 0.000060 0.210039 -8.292519 -1.506166 139.999924
11 139.999924 0.000000 0.000060 0.228710 -6.457037 -3.058037 139.999924
[Rope4_Seg07]
10 139.999802 0.000000 0.000000 1.180967 -13.358244 -0.460313 139.999802
11 139.999802 0.000000 0.000000 0.419303 -17.325344 -3.659799 139.999802
[Rope4_Seg08]
10 139.999924 0.000000 0.000119 -0.673241 -7.009439 -1.359414 139.999924
11 139.999924 0.000000 0.000119 -0.879323 -9.897042 -3.303401 139.999924
[Rope4_Seg09]
10 90.185791 0.000060 0.000060 -135.617828 2.228885 0.850567 90.185791
11 90.185791 0.000060 0.000060 -135.617828 2.228885 0.850567 90.185791
[L_rear_hand01]
10 101.696655 -8.392275 -7.654577 -34.454281 -18.946800 151.655121 102.329041
11 101.696655 -8.392275 -7.654577 -34.454281 -18.946800 151.655121 102.329041
[L_rear_hand02]
10 102.726799 -1.568258 5.773216 83.407906 30.330435 172.796509 102.900848
11 102.726799 -1.568258 5.773216 83.407906 30.330435 172.796509 102.900848
[L_rear_hand03]
10 104.552910 9.721220 -10.420293 -161.379868 -16.473232 -150.512238 105.519653
11 104.552910 9.721220 -10.420293 -161.379868 -16.473232 -150.512238 105.519653
